<?xml version="1.0" encoding="iso-8859-1"?>
<!-- Generator: Adobe Illustrator 19.0.0, SVG Export Plug-In . SVG Version: 6.00 Build 0)  -->
<svg version="1.1" id="Layer_1" xmlns="http://www.w3.org/2000/svg" xmlns:xlink="http://www.w3.org/1999/xlink" x="0px" y="0px"
	 viewBox="0 0 512 512" style="enable-background:new 0 0 512 512;" xml:space="preserve">
<path style="fill:#ACABB1;" d="M389.115,125.883L182.253,6.45c-13.066-7.544-24.905-8.245-33.454-3.277L90.411,37.104
	c0.027-0.016,0.057-0.028,0.085-0.045C82.008,41.943,76.74,52.388,76.697,67.26l-0.674,237.702
	c-0.085,29.835,20.898,66.178,46.862,81.168l206.863,119.432c13.441,7.759,25.573,8.262,34.17,2.818
	c-0.239,0.151-0.472,0.314-0.718,0.458l58.386-33.93c8.44-4.905,13.672-15.333,13.715-30.155l0.674-237.702
	C436.062,177.209,415.079,140.873,389.115,125.883z"/>
<g style="enable-background:new    ;">
	<path style="fill:#C6C5CB;" d="M421.588,474.907l-58.386,33.93c8.44-4.905,13.674-15.333,13.715-30.155l58.386-33.93
		C435.261,459.573,430.027,470.002,421.588,474.907z"/>
	<g>
		<path style="fill:#D8D8DA;" d="M90.411,37.104l58.386-33.93c8.549-4.968,20.388-4.267,33.454,3.277l-58.386,33.93
			C110.799,32.837,98.961,32.135,90.411,37.104z"/>
		<polygon style="fill:#D8D8DA;" points="377.591,240.981 435.977,207.05 435.303,444.752 376.917,478.682 		"/>
	</g>
	<g>
		<polygon style="fill:#E0E0E2;" points="123.866,40.381 182.253,6.45 389.115,125.883 330.729,159.813 		"/>
		<path style="fill:#E0E0E2;" d="M330.729,159.813l58.386-33.93c25.965,14.99,46.946,51.327,46.862,81.168l-58.386,33.93
			C377.676,211.14,356.693,174.804,330.729,159.813z"/>
	</g>
</g>
<g style="enable-background:new    ;">
	<path d="M329.344,260.716l-44.559-25.725l-0.018,6.192c-0.004,1.47,1.03,3.262,2.303,3.997l10.301,5.948
		c3.256,1.88,5.498,6.938,4.33,9.757l-42.015,99.52l-23.632-78.053l25.677-47.947c0.959-1.794,3.018-2.112,5.279-0.807l6.889,3.977
		c1.286,0.743,2.328,0.149,2.332-1.321l0.018-6.192l-41.445-23.928l-0.018,6.192c-0.004,1.47,1.03,3.262,2.31,4.001l6.185,3.57
		c3.355,1.937,5.59,7.196,4.237,9.95l-16.63,33.706l-16.05-52.615c-1.305-4.288,0.959-6.916,4.293-4.991
		c1.28,0.739,2.321,0.154,2.325-1.317l0.018-6.192l-39.568-22.845l-0.018,6.192c-0.004,1.47,1.03,3.254,2.31,3.993l4.251,2.454
		c2.338,1.35,4.431,4.17,5.342,7.159l27.145,89.564l-21.8,41.416L156.68,177.214c-1.191-4.19,1.066-6.699,4.343-4.808l8.822,5.094
		c1.251,0.722,2.285,0.173,2.325-1.252l0.16-6.184l-52.691-30.421l-0.018,6.192c-0.004,1.47,1.038,3.266,2.31,4.001l6.114,3.53
		c2.338,1.35,4.446,4.179,5.342,7.183l60.507,201.962l32.079-58.414l29.562,94.009l59.597-132.562
		c0.903-1.999,3.033-2.422,5.393-1.058l6.484,3.743c1.28,0.739,2.313,0.149,2.318-1.321L329.344,260.716"/>
</g>
<g>
</g>
<g>
</g>
<g>
</g>
<g>
</g>
<g>
</g>
<g>
</g>
<g>
</g>
<g>
</g>
<g>
</g>
<g>
</g>
<g>
</g>
<g>
</g>
<g>
</g>
<g>
</g>
<g>
</g>
</svg>
